# xmcd
#
# Track frame offsets:
#	150
#	8864
#	21917
#	31110
#	39892
#	51229
#	63998
#	77816
#	88395
#	100380
#	113087
#	123766
#	135562
#	148287
#	157774
#	167180
#	177557
#	188289
#	201232
#	211335
#	224310
#
# Disc length: 3137 seconds
#
# Revision: 1
# Processed by: cddbd v1.4PL0 Copyright (c) Steve Scherf et al.
# Submitted via: CDmax 1.8
#
DISCID=210c3f15
DTITLE=Various Artist - Caught in The Webb
DYEAR=2002
DGENRE=Country
TTITLE0=Dale Watson and The Jordanaires -  In The Jailhouse Now
TTITLE1=Mandy Barnett - Slowly
TTITLE2=Charlie Pride - I'm Tired
TTITLE3=Rosie Flores and The Jordanaires - I Ain't Never
TTITLE4=George Jones - Yes I Know Why
TTITLE5=Dwight Yoakam - If You Were Me
TTITLE6=Emmylou Harris - Wondering
TTITLE7=Robbie Fulks and Joy Lynn White - Tupelo County Jail
TTITLE8=Allison Moorer - Back Street Affair
TTITLE9=Matt King - Even Tho'
TTITLE10=Crystal Gayle - More And More
TTITLE11=The Del McCoury Band - I'm Walking the Dog
TTITLE12=Lionel Cartwright - That Heart Belongs To Me
TTITLE13=Guy Clark and The Jordanaires - Honky Tonk Song
TTITLE14=Gail Davies - Love Love Love
TTITLE15=Willie Nelson - That's Me Without You
TTITLE16=BR549 - The Stands The Glass
TTITLE17=Kevin Welch and Deborah Pierce - Why Baby Why
TTITLE18=Trent Summar - It's Been A Long Time
TTITLE19=Billy Walker and The Carol Lee Singers - I Don't Care
TTITLE20=Pam Tillis and The Jordanaires - No Love Have I
EXTD=A Tribute to the Legendary Webb Pierce
EXTT0=
EXTT1=
EXTT2=
EXTT3=
EXTT4=
EXTT5=
EXTT6=
EXTT7=
EXTT8=
EXTT9=
EXTT10=
EXTT11=
EXTT12=
EXTT13=
EXTT14=
EXTT15=
EXTT16=
EXTT17=
EXTT18=
EXTT19=
EXTT20=
PLAYORDER=
